<?xml version="1.0" standalone="no"?>
<!DOCTYPE svg PUBLIC "-//W3C//DTD SVG 20010904//EN"
 "http://www.w3.org/TR/2001/REC-SVG-20010904/DTD/svg10.dtd">
<svg version="1.0" xmlns="http://www.w3.org/2000/svg"
 width="1024.000000pt" height="1024.000000pt" viewBox="0 0 1024.000000 1024.000000"
 preserveAspectRatio="xMidYMid meet">
<metadata>
Created by potrace 1.11, written by Peter Selinger 2001-2013
</metadata>
<g transform="translate(0.000000,1024.000000) scale(0.100000,-0.100000)"
fill="#000000" stroke="none">
<path d="M1167 10233 c-1 -1 -40 -3 -87 -4 -469 -12 -887 -335 -1023 -790 -25
-84 -32 -115 -43 -199 -3 -25 -6 -1883 -6 -4130 0 -3730 1 -4093 16 -4177 44
-248 145 -442 320 -616 162 -160 378 -268 611 -306 38 -6 1563 -10 4180 -10
4039 0 4122 1 4212 20 51 11 118 28 148 40 30 11 57 20 59 20 3 0 36 16 72 35
322 168 530 447 599 804 22 113 22 8277 0 8390 -28 143 -63 238 -146 390 -13
24 -50 75 -94 130 -50 62 -167 166 -240 214 -172 112 -332 167 -527 182 -67 6
-8046 12 -8051 7z"/>
</g>
</svg>
